# xmcd CD database file
#
# Track frame offsets:
#	150
#	9917
#	23076
#	34371
#	44809
#	59264
#	72030
#	82591
#	91941
#	100614
#	112849
#	121812
#	134446
#	146912
#	157166
#	170599
#
# Disc length: 2422 seconds
#
# Revision: 0
# Processed by: cddbd v1.5.1PL0 Copyright (c) Steve Scherf et al.
# Submitted via: CDex 1.51
#
DISCID=cd097410
DTITLE=Mix - Country Legends
DYEAR=1900
DGENRE=Country
TTITLE0=Jonny Cash - Rock island line
TTITLE1=Billie Jo Spears - It coulda been me
TTITLE2=Patsy Cline - Crazy dreams
TTITLE3=Faron Young - If you ain't lovin'
TTITLE4=Freddy Fender - Since I met you baby
TTITLE5=Gene Autry - South of the border
TTITLE6=Waylon Jennings - Dream baby
TTITLE7=Dolly Parton - Girl left alone
TTITLE8=Buck Owens - After the dance
TTITLE9=Hank Williams - I heard you crying in your sleep
TTITLE10=Lynn Anderson - Ride, ride, ride
TTITLE11=Roger Miller - The last word in lonesome is me
TTITLE12=Skeeter Davis - Sweet dreams
TTITLE13=slim Whitman - Any time
TTITLE14=Merle Haggard - Cherokee maiden
TTITLE15=Willie Nelson - Suffering in silence
EXTD=
EXTT0=
EXTT1=
EXTT2=
EXTT3=
EXTT4=
EXTT5=
EXTT6=
EXTT7=
EXTT8=
EXTT9=
EXTT10=
EXTT11=
EXTT12=
EXTT13=
EXTT14=
EXTT15=
PLAYORDER=
